name rise36.2859peak64.2979fall75.1499.mot
datacolumns 19
datarows 36
range 4.46164600000000 4.51998400000000
endheader
time	ground_force1_vx	ground_force1_vy	ground_force1_vz	ground_force1_px	ground_force1_py	ground_force1_pz	ground_force2_vx	ground_force2_vy	ground_force2_vz	ground_force2_px	ground_force2_py	ground_force2_pz	ground_torque1_x	ground_torque1_y	ground_torque1_z	ground_torque2_x	ground_torque2_y	ground_torque2_z	
4.46164600000000	50.18383400000000	749.01187400000003	55.89501900000000	0.43354400000000	0.00000000000000	0.07875200000000	0.00000000000000	0.00000000000000	0.00000000000000	0.00000000000000	0.00000000000000	0.00000000000000	0.00000000000000	39.11424800000000	0.00000000000000	0.00000000000000	0.00000000000000	0.00000000000000	
4.46332900000000	49.49083900000000	751.49284000000000	56.22656800000000	0.43180500000000	0.00000000000000	0.07882400000000	0.00000000000000	0.00000000000000	0.00000000000000	0.00000000000000	0.00000000000000	0.00000000000000	0.00000000000000	39.31970400000000	0.00000000000000	0.00000000000000	0.00000000000000	0.00000000000000	
4.46498600000000	48.80871600000000	753.89717499999995	56.55338300000000	0.43006500000000	0.00000000000000	0.07889600000000	0.00000000000000	0.00000000000000	0.00000000000000	0.00000000000000	0.00000000000000	0.00000000000000	0.00000000000000	39.51844500000000	0.00000000000000	0.00000000000000	0.00000000000000	0.00000000000000	
4.46665200000000	48.13809600000000	756.22287400000005	56.87455900000000	0.42832900000000	0.00000000000000	0.07896800000000	0.00000000000000	0.00000000000000	0.00000000000000	0.00000000000000	0.00000000000000	0.00000000000000	0.00000000000000	39.70983500000000	0.00000000000000	0.00000000000000	0.00000000000000	0.00000000000000	
4.46831600000000	47.47953600000000	758.46788500000002	57.18915100000000	0.42659700000000	0.00000000000000	0.07903900000000	0.00000000000000	0.00000000000000	0.00000000000000	0.00000000000000	0.00000000000000	0.00000000000000	0.00000000000000	39.89321800000000	0.00000000000000	0.00000000000000	0.00000000000000	0.00000000000000	
4.46998000000000	46.83351700000000	760.63012600000002	57.49618300000000	0.42487200000000	0.00000000000000	0.07910800000000	0.00000000000000	0.00000000000000	0.00000000000000	0.00000000000000	0.00000000000000	0.00000000000000	0.00000000000000	40.06793100000000	0.00000000000000	0.00000000000000	0.00000000000000	0.00000000000000	
4.47164900000000	46.20044300000000	762.70749400000000	57.79465900000000	0.42315600000000	0.00000000000000	0.07917600000000	0.00000000000000	0.00000000000000	0.00000000000000	0.00000000000000	0.00000000000000	0.00000000000000	0.00000000000000	40.23330100000000	0.00000000000000	0.00000000000000	0.00000000000000	0.00000000000000	
4.47331200000000	45.58065100000000	764.69788400000004	58.08356200000000	0.42145000000000	0.00000000000000	0.07924300000000	0.00000000000000	0.00000000000000	0.00000000000000	0.00000000000000	0.00000000000000	0.00000000000000	0.00000000000000	40.38865900000000	0.00000000000000	0.00000000000000	0.00000000000000	0.00000000000000	
4.47498300000000	44.97440300000000	766.59920399999999	58.36187100000000	0.41975700000000	0.00000000000000	0.07930700000000	0.00000000000000	0.00000000000000	0.00000000000000	0.00000000000000	0.00000000000000	0.00000000000000	0.00000000000000	40.53333600000000	0.00000000000000	0.00000000000000	0.00000000000000	0.00000000000000	
4.47665200000000	44.38189700000000	768.40938400000005	58.62856000000000	0.41807800000000	0.00000000000000	0.07936900000000	0.00000000000000	0.00000000000000	0.00000000000000	0.00000000000000	0.00000000000000	0.00000000000000	0.00000000000000	40.66667900000000	0.00000000000000	0.00000000000000	0.00000000000000	0.00000000000000	
4.47831800000000	43.80326300000000	770.12639600000000	58.88261200000000	0.41641500000000	0.00000000000000	0.07942900000000	0.00000000000000	0.00000000000000	0.00000000000000	0.00000000000000	0.00000000000000	0.00000000000000	0.00000000000000	40.78804500000000	0.00000000000000	0.00000000000000	0.00000000000000	0.00000000000000	
4.47998500000000	43.23857000000000	771.74826399999995	59.12302300000000	0.41476900000000	0.00000000000000	0.07948600000000	0.00000000000000	0.00000000000000	0.00000000000000	0.00000000000000	0.00000000000000	0.00000000000000	0.00000000000000	40.89681700000000	0.00000000000000	0.00000000000000	0.00000000000000	0.00000000000000	
4.48165300000000	42.68782500000000	773.27308000000005	59.34880700000000	0.41314300000000	0.00000000000000	0.07953900000000	0.00000000000000	0.00000000000000	0.00000000000000	0.00000000000000	0.00000000000000	0.00000000000000	0.00000000000000	40.99239900000000	0.00000000000000	0.00000000000000	0.00000000000000	0.00000000000000	
4.48331900000000	42.15098100000000	774.69901800000002	59.55901000000000	0.41153700000000	0.00000000000000	0.07959000000000	0.00000000000000	0.00000000000000	0.00000000000000	0.00000000000000	0.00000000000000	0.00000000000000	0.00000000000000	41.07422600000000	0.00000000000000	0.00000000000000	0.00000000000000	0.00000000000000	
4.48498800000000	41.62793500000000	776.02434600000004	59.75271100000000	0.40995300000000	0.00000000000000	0.07963600000000	0.00000000000000	0.00000000000000	0.00000000000000	0.00000000000000	0.00000000000000	0.00000000000000	0.00000000000000	41.14177000000000	0.00000000000000	0.00000000000000	0.00000000000000	0.00000000000000	
4.48665100000000	41.11853300000000	777.24743799999999	59.92902800000000	0.40839200000000	0.00000000000000	0.07967900000000	0.00000000000000	0.00000000000000	0.00000000000000	0.00000000000000	0.00000000000000	0.00000000000000	0.00000000000000	41.19453600000000	0.00000000000000	0.00000000000000	0.00000000000000	0.00000000000000	
4.48831700000000	40.62257500000000	778.36679100000003	60.08712900000000	0.40685600000000	0.00000000000000	0.07971800000000	0.00000000000000	0.00000000000000	0.00000000000000	0.00000000000000	0.00000000000000	0.00000000000000	0.00000000000000	41.23207400000000	0.00000000000000	0.00000000000000	0.00000000000000	0.00000000000000	
4.48998100000000	40.13981700000000	779.38102900000001	60.22623300000000	0.40534500000000	0.00000000000000	0.07975300000000	0.00000000000000	0.00000000000000	0.00000000000000	0.00000000000000	0.00000000000000	0.00000000000000	0.00000000000000	41.25397800000000	0.00000000000000	0.00000000000000	0.00000000000000	0.00000000000000	
4.49165400000000	39.66997300000000	780.28892199999996	60.34561900000000	0.40386100000000	0.00000000000000	0.07978400000000	0.00000000000000	0.00000000000000	0.00000000000000	0.00000000000000	0.00000000000000	0.00000000000000	0.00000000000000	41.25989000000000	0.00000000000000	0.00000000000000	0.00000000000000	0.00000000000000	
4.49331900000000	39.21272000000000	781.08939199999998	60.44462800000000	0.40240500000000	0.00000000000000	0.07980900000000	0.00000000000000	0.00000000000000	0.00000000000000	0.00000000000000	0.00000000000000	0.00000000000000	0.00000000000000	41.24950400000000	0.00000000000000	0.00000000000000	0.00000000000000	0.00000000000000	
4.49497900000000	38.76770100000000	781.78152499999999	60.52267100000000	0.40097700000000	0.00000000000000	0.07983100000000	0.00000000000000	0.00000000000000	0.00000000000000	0.00000000000000	0.00000000000000	0.00000000000000	0.00000000000000	41.22256400000000	0.00000000000000	0.00000000000000	0.00000000000000	0.00000000000000	
4.49667400000000	38.33453000000000	782.36457900000005	60.57922700000000	0.39957800000000	0.00000000000000	0.07984700000000	0.00000000000000	0.00000000000000	0.00000000000000	0.00000000000000	0.00000000000000	0.00000000000000	0.00000000000000	41.17887000000000	0.00000000000000	0.00000000000000	0.00000000000000	0.00000000000000	
4.49831400000000	37.91279000000000	782.83799399999998	60.61385400000000	0.39821000000000	0.00000000000000	0.07985800000000	0.00000000000000	0.00000000000000	0.00000000000000	0.00000000000000	0.00000000000000	0.00000000000000	0.00000000000000	41.11827800000000	0.00000000000000	0.00000000000000	0.00000000000000	0.00000000000000	
4.49998200000000	37.50204500000000	783.20139800000004	60.62618700000000	0.39687200000000	0.00000000000000	0.07986400000000	0.00000000000000	0.00000000000000	0.00000000000000	0.00000000000000	0.00000000000000	0.00000000000000	0.00000000000000	41.04070200000000	0.00000000000000	0.00000000000000	0.00000000000000	0.00000000000000	
4.50164600000000	37.10183400000000	783.45461699999998	60.61594200000000	0.39556500000000	0.00000000000000	0.07986500000000	0.00000000000000	0.00000000000000	0.00000000000000	0.00000000000000	0.00000000000000	0.00000000000000	0.00000000000000	40.94611300000000	0.00000000000000	0.00000000000000	0.00000000000000	0.00000000000000	
4.50331400000000	36.71168100000000	783.59767799999997	60.58291600000000	0.39429000000000	0.00000000000000	0.07986000000000	0.00000000000000	0.00000000000000	0.00000000000000	0.00000000000000	0.00000000000000	0.00000000000000	0.00000000000000	40.83454100000000	0.00000000000000	0.00000000000000	0.00000000000000	0.00000000000000	
4.50498800000000	36.33109600000000	783.63081699999998	60.52699100000000	0.39304600000000	0.00000000000000	0.07985000000000	0.00000000000000	0.00000000000000	0.00000000000000	0.00000000000000	0.00000000000000	0.00000000000000	0.00000000000000	40.70607300000000	0.00000000000000	0.00000000000000	0.00000000000000	0.00000000000000	
4.50665100000000	35.95957500000000	783.55448200000001	60.44813500000000	0.39183500000000	0.00000000000000	0.07983500000000	0.00000000000000	0.00000000000000	0.00000000000000	0.00000000000000	0.00000000000000	0.00000000000000	0.00000000000000	40.56085600000000	0.00000000000000	0.00000000000000	0.00000000000000	0.00000000000000	
4.50832000000000	35.59660800000000	783.36933699999997	60.34639800000000	0.39065500000000	0.00000000000000	0.07981400000000	0.00000000000000	0.00000000000000	0.00000000000000	0.00000000000000	0.00000000000000	0.00000000000000	0.00000000000000	40.39909200000000	0.00000000000000	0.00000000000000	0.00000000000000	0.00000000000000	
4.50999400000000	35.24167900000000	783.07626600000003	60.22191600000000	0.38950800000000	0.00000000000000	0.07978800000000	0.00000000000000	0.00000000000000	0.00000000000000	0.00000000000000	0.00000000000000	0.00000000000000	0.00000000000000	40.22104200000000	0.00000000000000	0.00000000000000	0.00000000000000	0.00000000000000	
4.51164600000000	34.89426700000000	782.67637300000001	60.07490800000000	0.38839400000000	0.00000000000000	0.07975600000000	0.00000000000000	0.00000000000000	0.00000000000000	0.00000000000000	0.00000000000000	0.00000000000000	0.00000000000000	40.02701800000000	0.00000000000000	0.00000000000000	0.00000000000000	0.00000000000000	
4.51331900000000	34.55385400000000	782.17098899999996	59.90567500000000	0.38731200000000	0.00000000000000	0.07971900000000	0.00000000000000	0.00000000000000	0.00000000000000	0.00000000000000	0.00000000000000	0.00000000000000	0.00000000000000	39.81738900000000	0.00000000000000	0.00000000000000	0.00000000000000	0.00000000000000	
4.51498300000000	34.21992100000000	781.56166299999995	59.71459900000000	0.38626100000000	0.00000000000000	0.07967600000000	0.00000000000000	0.00000000000000	0.00000000000000	0.00000000000000	0.00000000000000	0.00000000000000	0.00000000000000	39.59257200000000	0.00000000000000	0.00000000000000	0.00000000000000	0.00000000000000	
4.51665400000000	33.89195500000000	780.85017000000005	59.50213800000000	0.38524200000000	0.00000000000000	0.07962800000000	0.00000000000000	0.00000000000000	0.00000000000000	0.00000000000000	0.00000000000000	0.00000000000000	0.00000000000000	39.35303400000000	0.00000000000000	0.00000000000000	0.00000000000000	0.00000000000000	
4.51831600000000	33.56944700000000	780.03850599999998	59.26882600000000	0.38425500000000	0.00000000000000	0.07957400000000	0.00000000000000	0.00000000000000	0.00000000000000	0.00000000000000	0.00000000000000	0.00000000000000	0.00000000000000	39.09928800000000	0.00000000000000	0.00000000000000	0.00000000000000	0.00000000000000	
4.51998400000000	33.25190000000000	779.12888699999996	59.01526800000000	0.38329900000000	0.00000000000000	0.07951600000000	0.00000000000000	0.00000000000000	0.00000000000000	0.00000000000000	0.00000000000000	0.00000000000000	0.00000000000000	38.83189200000000	0.00000000000000	0.00000000000000	0.00000000000000	0.00000000000000	
